<!DOCTYPE svg PUBLIC "-//W3C//DTD SVG 1.1//EN" "http://www.w3.org/Graphics/SVG/1.1/DTD/svg11.dtd">
<!-- Uploaded to: SVG Repo, www.svgrepo.com, Transformed by: SVG Repo Mixer Tools -->
<svg width="161px" height="161px" viewBox="-19.44 -19.44 62.88 62.88" xmlns="http://www.w3.org/2000/svg" fill="#000000" transform="matrix(1, 0, 0, -1, 0, 0)" stroke="#000000" stroke-width="0.00024000000000000003">
<g id="SVGRepo_bgCarrier" stroke-width="0"/>
<g id="SVGRepo_tracerCarrier" stroke-linecap="round" stroke-linejoin="round"/>
<g id="SVGRepo_iconCarrier">
<path d="M20 9a2.995 2.995 0 0 0-2.816 2H6.816c-.027-.074-.05-.15-.082-.221l7.09-4.726a3.006 3.006 0 1 0-.558-.83l-7.09 4.725a3 3 0 1 0 0 4.105l7.09 4.726A2.973 2.973 0 0 0 13 20a3.02 3.02 0 1 0 .823-2.052l-7.089-4.726A2.973 2.973 0 0 0 7 12h10a3 3 0 1 0 3-3zm-6-5a2 2 0 1 1 2 2 2.002 2.002 0 0 1-2-2zm2 14a2 2 0 1 1-2 2 2.002 2.002 0 0 1 2-2zm4-4a2 2 0 1 1 2-2 2.002 2.002 0 0 1-2 2z"/>
<path fill="none" d="M0 0h24v24H0z"/>
</g>
</svg>