<?xml version="1.0" encoding="UTF-8"?>
<!DOCTYPE svg PUBLIC "-//W3C//DTD SVG 1.1//EN" "http://www.w3.org/Graphics/SVG/1.1/DTD/svg11.dtd">
<!-- Creator: CorelDRAW -->
<svg xmlns="http://www.w3.org/2000/svg" xml:space="preserve" width="2048px" height="2048px" style="shape-rendering:geometricPrecision; text-rendering:geometricPrecision; image-rendering:optimizeQuality; fill-rule:evenodd; clip-rule:evenodd"
viewBox="0 0 2048 2048"
 xmlns:xlink="http://www.w3.org/1999/xlink">
 <defs>
  <style type="text/css">
   <![CDATA[
    .fil1 {fill:none}
    .fil0 {fill:#424242}
   ]]>
  </style>
 </defs>
 <g id="Layer_x0020_1">
  <metadata id="CorelCorpID_0Corel-Layer"/>
  <g id="_327641784">
   <path id="_327641352" class="fil0" d="M302.302 1533.75l-0.425197 0.245669 -7.84607 -13.5815c-0.380315,-0.655512 -0.722835,-1.31575 -1.05709,-1.98071l-6.69213 -11.5902 0.812599 -0.470079c-30.0307,-64.4882 -40.402,-137.176 -21.8055,-206.58 18.639,-69.567 61.8497,-129.358 121.869,-168.458l-0.244488 -0.422835 13.5768 -7.84725c0.562205,-0.324803 1.12087,-0.604725 1.68425,-0.884646l11.8902 -6.86575 0.0307087 0.0531496 575.356 -332.181c66.5965,-38.4508 146.252,-48.7193 220.492,-28.826 63.443,16.9984 119.056,54.6343 158.086,107.101l-82.1162 47.4095c-25.9453,-30.9921 -60.9662,-53.1225 -100.27,-63.6532 -50.2713,-13.4693 -104.237,-6.74056 -149.371,19.3158l-586.173 338.429c-0.850394,0.538583 -1.64291,1.10433 -2.52756,1.61811l-4.74685 2.7437c-42.8611,26.3752 -73.6229,68.0445 -86.6776,116.769 -13.1138,48.9473 -9.74174,102.832 17.6457,146.454 1.02402,1.63583 2.02205,3.28347 2.94331,4.97953 24.5752,45.3886 66.6485,73.4989 114.689,89.9835 2.06221,7.22599 4.40906,14.3811 7.03819,21.45 10.8059,29.0516 26.2099,56.152 45.4961,80.2914 -24.8067,-1.10433 -49.5721,-5.30433 -73.1989,-11.635 -69.5646,-18.6402 -129.357,-61.8497 -168.457,-121.867zm991.259 -254.945l0.164173 0.288189 -13.5059 7.81418c-0.664961,0.383859 -1.28858,0.683859 -1.96063,1.04528l-222.776 128.62c-7.43268,-30.7571 -19.8626,-60.1075 -36.7831,-86.8914l212.542 -123.106c1.36536,-0.790158 2.69646,-1.61457 4.08544,-2.36693 45.5469,-24.6461 75.9898,-68.9079 89.2288,-118.323 1.85669,-6.92953 3.3378,-13.9571 4.44095,-21.0414l95.3528 -55.0512c2.86654,33.6839 -0.178347,67.7067 -8.93623,100.393 -18.6331,69.5422 -61.4138,129.954 -121.852,168.62z"/>
   <path id="_327641904" class="fil0" d="M754.343 689.096l-0.12874 -0.222047 13.5921 -7.85552c0.666142,-0.38504 1.29449,-0.686221 1.96772,-1.04764l573.322 -331.009 -0.0413386 -0.0720473 13.5957 -7.84134c0.651969,-0.375591 1.30866,-0.715749 1.97008,-1.05l11.5925 -6.69331 0.467717 0.807875c64.4835,-30.052 137.177,-40.3961 206.581,-21.7984 73.3406,19.65 133.279,68.8477 174.541,131.784 1.49055,2.27008 2.85,4.62284 4.07244,7.04764 33.7807,67.0382 46.4622,143.824 26.8571,216.991 -19.6512,73.3406 -68.856,133.271 -131.783,174.541 -1.9878,1.30158 -4.03347,2.38347 -6.08386,3.56575l-572.644 330.617 0.0649607 0.112205 -13.5886 7.85197c-1.17874,0.682678 -2.37402,1.24961 -3.58347,1.86142 -67.0288,33.874 -143.854,46.4929 -217.038,26.8819 -63.4465,-16.9996 -119.108,-54.5906 -158.144,-107.067l82.232 -47.4768c25.9311,30.9874 60.9107,53.1556 100.213,63.6875 48.9461,13.1138 102.832,9.75001 146.452,-17.6433 1.79055,-1.12441 3.63662,-2.09055 5.4626,-3.1441l583.627 -336.958c0.855119,-0.540945 1.64882,-1.10906 2.53937,-1.62402l6.37087 -3.67677c42.052,-26.4189 72.1548,-67.715 85.0453,-115.828 12.1772,-45.4489 10.1032,-95.1284 -12.137,-136.932l-5.39292 -9.34016c-0.0413386,-0.0673229 -0.0838583,-0.133465 -0.125197,-0.198425 -0.582284,-0.930709 -1.19291,-1.81181 -1.74449,-2.76851l-3.77126 -6.51851c-26.4213,-41.98 -67.6831,-72.0296 -115.742,-84.9095 -48.9615,-13.1173 -102.83,-9.69922 -146.475,17.6563 -0.93189,0.583465 -1.81299,1.19291 -2.77087,1.74567l-13.6488 7.88623 -0.0389764 -0.0696851 -573.27 330.978c-1.35473,0.783071 -2.67638,1.60158 -4.05473,2.34803 -45.5386,24.6614 -75.9993,68.9115 -89.2394,118.331 -1.85669,6.93071 -3.33898,13.9559 -4.44095,21.0402l-95.3516 55.0512c-2.86772,-33.6839 0.175984,-67.7044 8.93505,-100.391 18.6154,-69.4808 61.1115,-130.237 121.736,-168.65zm-92.1957 391.442l81.3556 -46.9713 0 0 -81.3556 46.9713z"/>
   <g>
    <path id="_327641880" class="fil0" d="M588.306 1301.65c-46.9973,46.9973 -76.0666,111.921 -76.0666,183.63 0,31.8355 5.72953,62.3351 16.2142,90.5209 12.6508,34.011 32.224,64.656 57.0083,90.2209 0.940158,0.970867 1.88858,1.93347 2.8441,2.88898 46.9949,46.9961 111.921,76.0666 183.63,76.0666 71.7083,0 136.634,-29.0693 183.63,-76.0666 46.9973,-46.9973 76.0666,-111.923 76.0666,-183.631 0,-17.7874 -1.78819,-35.1579 -5.19567,-51.9402 -6.43229,-31.6784 -18.6295,-61.2626 -35.4508,-87.6107 -10.1941,-15.9662 -22.0855,-30.7441 -35.4201,-44.0788 -46.9973,-46.9973 -111.921,-76.0666 -183.63,-76.0666 -71.7083,0 -136.635,29.0705 -183.63,76.0666zm107.65 72.0402l-8.45906 -14.6528 21.4217 -12.3673 8.45906 14.6528c16.8225,-7.15276 32.3658,-9.05198 46.767,-5.57835 14.3504,3.50433 27.0886,11.9138 38.2122,25.2307l-34.6099 26.5158c-9.01182,-10.3583 -19.474,-14.8276 -31.467,-13.4291l33.4004 57.8516c27.4028,-7.26379 48.3827,-8.26182 62.8146,-2.98583 14.4815,5.24764 26.3315,15.8539 35.5784,31.8697 10.2969,17.8358 13.5839,36.013 9.88229,54.4536 -3.7252,18.5197 -14.465,34.6902 -32.1107,48.5835l15.9862 27.6886 -21.4217 12.3673 -15.5776 -26.9811c-18.274,7.78819 -35.8441,9.4441 -52.6595,4.93819 -16.787,-4.45394 -32.25,-15.6024 -46.4611,-33.3331l36.2599 -26.4591c6.11693,6.97796 13.0347,12.078 20.6764,15.2788 7.59213,3.22914 14.8335,4.57205 21.6768,4.05591l-35.7922 -61.9937c-22.5603,5.61615 -41.5713,5.47559 -57.0898,-0.518504 -15.4701,-6.02481 -27.8646,-16.9914 -37.0819,-32.9575 -9.33426,-16.1669 -12.0791,-32.7047 -8.23229,-49.6122 3.89764,-16.9358 13.8437,-31.0973 29.8276,-42.6177z"/>
    <path id="_327641808" class="fil0" d="M706.458 1424.09c-0.694489,6.73229 0.62126,12.9791 3.91772,18.6886 3.00355,5.20394 7.40079,9.20079 13.0996,11.8382 5.77914,2.65866 12.6803,3.52559 20.7012,2.59961l-29.5796 -51.2327c-4.72323,5.35394 -7.36654,11.3941 -8.13898,18.1063z"/>
    <path id="_327642072" class="fil0" d="M793.631 1493.4l33.313 57.6993c6.64016,-5.65276 10.6689,-12.5599 12.1665,-20.7 1.46811,-8.19095 0.0885827,-15.9496 -4.19882,-23.3764 -3.82205,-6.6189 -9.05906,-11.139 -15.7205,-13.6937 -6.6626,-2.55355 -15.2079,-2.53701 -25.5603,0.0708662z"/>
   </g>
  </g>
 </g>
 <rect class="fil1" width="2048" height="2048"/>
</svg>
