<!DOCTYPE svg PUBLIC "-//W3C//DTD SVG 1.1//EN" "http://www.w3.org/Graphics/SVG/1.1/DTD/svg11.dtd">
<!-- Uploaded to: SVG Repo, www.svgrepo.com, Transformed by: SVG Repo Mixer Tools -->
<svg height="99px" width="99px" version="1.1" id="Capa_1" xmlns="http://www.w3.org/2000/svg" xmlns:xlink="http://www.w3.org/1999/xlink" viewBox="0 0 499.907 499.907" xml:space="preserve" fill="#fcfcfc" stroke="#fcfcfc">
<g id="SVGRepo_bgCarrier" stroke-width="0"/>
<g id="SVGRepo_tracerCarrier" stroke-linecap="round" stroke-linejoin="round" stroke="#CCCCCC" stroke-width="0.999814"/>
<g id="SVGRepo_iconCarrier"> <g> <g> <circle style="fill:#ffffff;" cx="359.023" cy="330.256" r="14.9"/> <circle style="fill:#ffffff;" cx="409.144" cy="330.256" r="14.9"/> <path style="fill:#ffffff;" d="M453.168,243.857h-60.964V130.269c0-0.171-0.089-0.333-0.106-0.504 c-0.041-0.723-0.179-1.422-0.415-2.105c-0.089-0.26-0.163-0.512-0.268-0.756c-0.398-0.862-0.894-1.691-1.593-2.382L267.682,2.382 c-0.699-0.699-1.52-1.195-2.382-1.593c-0.244-0.114-0.512-0.179-0.772-0.276c-0.675-0.228-1.357-0.366-2.073-0.415 C262.277,0.089,262.114,0,261.935,0H115.832c-4.487,0-8.129,3.642-8.129,8.129v235.729H46.739c-4.487,0-8.129,3.633-8.129,8.129 v211.343c0,4.495,3.642,8.129,8.129,8.129h406.429c4.495,0,8.129-3.633,8.129-8.129V251.986 C461.297,247.491,457.663,243.857,453.168,243.857z M364.453,122.14h-94.389V27.751L364.453,122.14z M123.961,16.257h129.846 v114.011c0,4.487,3.633,8.129,8.129,8.129h114.011v105.46H123.961V16.257z M445.039,455.2H54.868V260.114h60.964h268.243h60.964 V455.2z"/> <path style="fill:#ffffff;" d="M384.075,483.65H115.832c-4.487,0-8.129,3.633-8.129,8.129s3.642,8.129,8.129,8.129h268.243 c4.495,0,8.129-3.633,8.129-8.129S388.57,483.65,384.075,483.65z"/> </g> </g> </g>
</svg>